<svg width="34" height="31" viewBox="0 0 34 31" fill="none" xmlns="http://www.w3.org/2000/svg">
<g clip-path="url(#clip0_24_356)">
<path d="M27.0305 13.2101C26.4508 13.2101 25.888 13.2604 25.3492 13.3825L23.2027 8.12153H23.9021C25.0028 8.12153 26.0438 7.75222 26.8335 7.05344L27.5742 6.40577C27.9109 6.1079 27.9188 5.62161 27.5921 5.31465C27.2654 5.0077 26.7278 5.00243 26.3912 5.3003L25.6505 5.94105C25.1796 6.35786 24.5586 6.57272 23.9022 6.57272H21.9795C21.7012 6.57272 21.4405 6.71273 21.2819 6.92118C21.1232 7.12974 21.0865 7.40366 21.1839 7.64133L22.0008 9.64144C21.9956 9.64134 21.9903 9.656 21.9851 9.656C21.9833 9.656 21.9815 9.67014 21.9795 9.67014H11.1117L9.64397 7.41553L11.2381 6.91013C11.6307 6.78717 11.8682 6.44036 11.7999 6.06702C11.7315 5.69378 11.3774 5.4371 10.9623 5.4371H6.29572C5.64176 5.4371 5.10954 5.90234 5.10954 6.49859C5.10954 7.42172 5.93234 8.16294 6.94356 8.16294C7.14626 8.16294 7.34726 8.12711 7.54112 8.0665L8.00574 7.91855L9.49438 10.1896L8.35101 13.3164C7.97596 13.2473 7.59072 13.2039 7.19676 13.1924C5.205 13.1343 3.34041 13.8262 1.96297 15.1228C0.638754 16.3694 -0.0572126 18.0129 0.00359675 19.7506C0.120459 23.0893 3.08053 25.7881 6.74233 25.8946C6.81854 25.8968 6.89407 25.8979 6.96972 25.8979C8.87338 25.8979 10.6515 25.2045 11.9762 23.9575C13.0479 22.9485 13.7078 21.6468 13.8883 20.3046H15.2529C15.5471 20.5111 15.9279 20.6798 16.3444 20.6798C17.2725 20.6798 18.0276 19.9947 18.0276 19.1483C18.0276 18.8736 17.947 18.6178 17.8077 18.3943L22.5685 11.0323L23.7635 13.953C21.5627 15.0226 20.0608 17.1363 20.0608 19.5643C20.0608 23.0683 23.1873 25.9191 27.0305 25.9191C30.8736 25.9191 34 23.0684 34 19.5645C34 16.0606 30.8736 13.2101 27.0305 13.2101ZM20.4938 11.219L16.3486 17.6297C16.3472 17.6297 16.3458 17.6233 16.3444 17.6233C16.3396 17.6233 16.3349 17.6332 16.3301 17.6333L12.1254 11.2191L20.4938 11.219ZM10.6435 11.9425L14.8762 18.3969C14.8062 18.5106 14.7529 18.6528 14.7163 18.756H13.8867C13.5933 16.5878 12.0676 14.7169 9.96206 13.8L10.6435 11.9425ZM8.43027 18.756C8.37331 18.6528 8.30786 18.5984 8.2346 18.5255L9.23846 15.7764C10.4524 16.3881 11.3404 17.517 11.5977 18.756H8.43027ZM10.3494 22.5209C9.41919 23.3966 8.16269 23.8673 6.81469 23.8275C4.34359 23.7557 2.34617 21.9361 2.26736 19.6831C2.22625 18.5092 2.69585 17.4001 3.58987 16.5586C4.48424 15.7167 5.68446 15.2533 6.96949 15.2533C7.02102 15.2533 7.07254 15.2544 7.12452 15.2558C7.2946 15.2608 7.46208 15.2749 7.62718 15.296L6.61188 18.0733C5.86802 18.232 5.31179 18.8405 5.31179 19.5664C5.31179 20.4126 6.06686 21.0946 6.99486 21.0946C7.62356 21.0946 8.17198 20.821 8.46096 20.3047H11.5976C11.4333 21.1307 11.0065 21.9024 10.3494 22.5209ZM27.0305 23.8545C24.4363 23.8545 22.3256 21.93 22.3256 19.5647C22.3256 18.0231 23.2226 16.6693 24.5654 15.913L26.1618 19.8142C26.2892 20.1257 26.6132 20.318 26.9575 20.318C27.0562 20.318 27.1565 20.3023 27.2543 20.2689C27.6938 20.1195 27.9171 19.6734 27.753 19.2728L26.1485 15.3517C26.4344 15.3021 26.7289 15.275 27.0305 15.275C29.6246 15.275 31.7352 17.1994 31.7352 19.5647C31.7352 21.93 29.6248 23.8545 27.0305 23.8545Z" fill="black"/>
</g>
<defs>
<clipPath id="clip0_24_356">
<rect width="34" height="31" fill="white"/>
</clipPath>
</defs>
</svg>
